<svg width="122" height="48" viewBox="0 0 122 48" fill="none" xmlns="http://www.w3.org/2000/svg">
<rect width="122" height="48" rx="4" fill="#36B37F"/>
<path d="M20.1087 20.8842H21.9077C21.8534 18.9041 20.1027 17.4673 17.5913 17.4673C15.1101 17.4673 13.2085 18.886 13.2085 21.017C13.2085 22.7376 14.44 23.7457 16.4262 24.283L17.8871 24.6815C19.2092 25.0316 20.2294 25.4663 20.2294 26.565C20.2294 27.7724 19.0764 28.5692 17.4887 28.5692C16.0519 28.5692 14.8566 27.9293 14.7479 26.5831H12.8764C12.9972 28.8228 14.7298 30.2053 17.5007 30.2053C20.4045 30.2053 22.0767 28.6779 22.0767 26.5831C22.0767 24.3555 20.0906 23.4922 18.521 23.1058L17.3136 22.7919C16.3477 22.5444 15.0618 22.0916 15.0679 20.9084C15.0679 19.858 16.0277 19.0792 17.549 19.0792C18.9677 19.0792 19.9759 19.7433 20.1087 20.8842ZM28.6674 30.1871C30.6898 30.1871 32.1206 29.1911 32.5311 27.6818L30.8226 27.3739C30.4966 28.2493 29.7118 28.696 28.6855 28.696C27.1401 28.696 26.1017 27.6939 26.0534 25.907H32.6458V25.267C32.6458 21.9165 30.6415 20.6065 28.5407 20.6065C25.9568 20.6065 24.2544 22.5746 24.2544 25.424C24.2544 28.3036 25.9327 30.1871 28.6674 30.1871ZM26.0595 24.5547C26.1319 23.2386 27.0858 22.0977 28.5527 22.0977C29.9533 22.0977 30.8709 23.136 30.8769 24.5547H26.0595ZM39.155 30.1871C41.1773 30.1871 42.6081 29.1911 43.0186 27.6818L41.3102 27.3739C40.9842 28.2493 40.1994 28.696 39.1731 28.696C37.6276 28.696 36.5893 27.6939 36.541 25.907H43.1333V25.267C43.1333 21.9165 41.129 20.6065 39.0282 20.6065C36.4444 20.6065 34.742 22.5746 34.742 25.424C34.742 28.3036 36.4202 30.1871 39.155 30.1871ZM36.547 24.5547C36.6195 23.2386 37.5733 22.0977 39.0403 22.0977C40.4408 22.0977 41.3585 23.136 41.3645 24.5547H36.547ZM50.8 30H52.6654V25.6534H55.2009C58.0684 25.6534 59.4871 23.9208 59.4871 21.6388C59.4871 19.3629 58.0805 17.6364 55.2069 17.6364H50.8V30ZM52.6654 24.0717V19.2362H55.0077C56.855 19.2362 57.6096 20.2383 57.6096 21.6388C57.6096 23.0394 56.855 24.0717 55.0319 24.0717H52.6654ZM62.0391 30H63.8441V24.3374C63.8441 23.1239 64.7799 22.2486 66.0597 22.2486C66.434 22.2486 66.8566 22.315 67.0015 22.3572V20.6307C66.8204 20.6065 66.4642 20.5884 66.2348 20.5884C65.1481 20.5884 64.2184 21.2042 63.8804 22.2003H63.7838V20.7273H62.0391V30ZM72.6474 30.1871C75.2614 30.1871 76.9698 28.2734 76.9698 25.4059C76.9698 22.5202 75.2614 20.6065 72.6474 20.6065C70.0334 20.6065 68.3249 22.5202 68.3249 25.4059C68.3249 28.2734 70.0334 30.1871 72.6474 30.1871ZM72.6534 28.6719C70.945 28.6719 70.1481 27.1808 70.1481 25.3999C70.1481 23.625 70.945 22.1158 72.6534 22.1158C74.3498 22.1158 75.1467 23.625 75.1467 25.3999C75.1467 27.1808 74.3498 28.6719 72.6534 28.6719ZM79.4947 20.7273V30.5795C79.4947 31.4428 79.1385 31.9137 78.2812 31.9137C78.1786 31.9137 78.1001 31.9137 77.9915 31.9077V33.4652H78.3416C80.2795 33.4893 81.2997 32.451 81.2997 30.5916V20.7273H79.4947ZM80.3881 19.2965C81.0099 19.2965 81.5291 18.8136 81.5291 18.2219C81.5291 17.6303 81.0099 17.1413 80.3881 17.1413C79.7603 17.1413 79.2471 17.6303 79.2471 18.2219C79.2471 18.8136 79.7603 19.2965 80.3881 19.2965ZM88.2345 30.1871C90.2569 30.1871 91.6876 29.1911 92.0981 27.6818L90.3897 27.3739C90.0637 28.2493 89.2789 28.696 88.2526 28.696C86.7072 28.696 85.6688 27.6939 85.6205 25.907H92.2128V25.267C92.2128 21.9165 90.2086 20.6065 88.1077 20.6065C85.5239 20.6065 83.8215 22.5746 83.8215 25.424C83.8215 28.3036 85.4998 30.1871 88.2345 30.1871ZM85.6265 24.5547C85.699 23.2386 86.6528 22.0977 88.1198 22.0977C89.5204 22.0977 90.438 23.136 90.444 24.5547H85.6265ZM98.6315 30.1871C100.823 30.1871 102.242 28.8711 102.441 27.0661H100.684C100.455 28.0682 99.6759 28.6598 98.6436 28.6598C97.1162 28.6598 96.1322 27.386 96.1322 25.3636C96.1322 23.3775 97.1343 22.1278 98.6436 22.1278C99.7906 22.1278 100.491 22.8523 100.684 23.7216H102.441C102.248 21.8501 100.72 20.6065 98.6134 20.6065C95.9994 20.6065 94.309 22.5746 94.309 25.4059C94.309 28.201 95.939 30.1871 98.6315 30.1871ZM109.21 20.7273H107.308V18.5057H105.503V20.7273H104.145V22.1761H105.503V27.6516C105.497 29.3359 106.783 30.1509 108.207 30.1207C108.781 30.1147 109.167 30.006 109.379 29.9276L109.053 28.4364C108.932 28.4606 108.709 28.5149 108.419 28.5149C107.833 28.5149 107.308 28.3217 107.308 27.2773V22.1761H109.21V20.7273Z" fill="white"/>
</svg>
